<svg xmlns="http://www.w3.org/2000/svg" viewBox="197 0 566 560" enable-background="new 197 0 566 560" fill="#fff"><path d="M480.7 560c-155.313 0-281.675-125.609-281.675-279.998s126.362-280.002 281.675-280.002 281.675 125.609 281.675 280.002-126.358 279.998-281.675 279.998zm0-513.147c-129.327 0-234.541 104.589-234.541 233.149s105.218 233.149 234.541 233.149 234.541-104.592 234.541-233.149-105.214-233.149-234.541-233.149zM527.543 283.507l53.236-53.237c12.555-12.555 12.555-32.91 0-45.465-12.555-12.555-32.911-12.555-45.467 0l-53.236 53.236-53.359-53.359c-12.555-12.555-32.911-12.555-45.467 0s-12.555 32.91 0 45.465l53.36 53.36-51.009 51.009c-12.555 12.555-12.555 32.911 0 45.467s32.911 12.555 45.467 0l51.008-51.009 50.885 50.885c12.555 12.555 32.91 12.555 45.465 0 12.555-12.555 12.555-32.911 0-45.467l-50.883-50.885z"/></svg>