<svg xmlns="http://www.w3.org/2000/svg" viewBox="0 0 78.037 73.91" enable-background="new 0 0 78.037 73.91"><path d="M0 0v73.91h78.037v-73.91h-78.037zm23.308 53.811v-28.008h7.696v28.008h-7.696zm12.685-28.008h6.916v28.008h-6.916v-28.008zm11.904 0h7.107v28.008h-7.107v-28.008zm7.107-4.952h-31.696v-10.711h31.696v10.711zm-36.684-10.711v27.031h-13.332v-27.031h13.332zm4.988 48.624h31.696v10.194h-31.696v-10.194zm36.684-48.624h13.057v27.031h-13.057v-27.031zm-55.004 31.984h13.332v26.834h-13.332v-26.834zm55.004 26.834v-26.834h13.057v26.834h-13.057z"/></svg>