<svg xmlns="http://www.w3.org/2000/svg" viewBox="0 0 63.334 73.91" enable-background="new 0 0 63.334 73.91" fill="#56a623"><path d="M10.358 15.299h29.087v-4.276h-29.087v4.276zm0 7.32h29.087v-4.276h-29.087v4.276zm39.207 10.952v-33.571h-49.565v33.571h5.89v9.834l6.583-4.377 8.21-5.458h28.882zm-39.43 1.889v-6.165h-5.89v-25.018h41.075v25.018h-25.912l-9.273 6.165zm43.68-6.114v4.276h5.27v25.637999999999998h-5.545v6.572l-9.703-6.572h-24.361v-20.439999999999998l-4.245 2.36v22.357h27.312l8.628 5.845 6.614 4.48v-10.325h5.545v-34.191h-9.515zm-.119 11.834h-29.087v4.276h29.087v-4.276zm-29.087 11.596h29.087v-4.276h-29.087v4.276z"/></svg>