<svg xmlns="http://www.w3.org/2000/svg" viewBox="0 0 189.75 41" enable-background="new 0 0 189.75 41" fill="#62bc28"><path d="M70.498.308h-8.535v35.713l-14.307-35.713h-7.734l-10.74 27.005v-27.005h-8.985v27.089c0 3.535-1.783 5.254-5.451 5.254-2.877 0-4.813-1.811-5.756-5.383l-.074-.281-8.666 2.258.069.278c1.88 7.73 6.754 11.649 14.486 11.649 3.464 0 6.378-.682 8.661-2.026l1.319-.776-.955 2.403h9.743l3.729-10h13.035l3.729 10h17.003v-17.592l7.388 17.593h5.655l7.448-17.603v17.603h9.103v-40.466h-8.413l-10.994 26.162-10.758-26.162zm-30.258 22.743l3.55-9.567 3.604 9.567h-7.154zM176.092.35h-14.884v9.087c-.831-6.052-5.25-9.087-13.281-9.087h-14.884v37.848l-14.641-37.848h-4.402l-15.636 40.423h4.285l4.692-11.988h17.721l4.632 11.988h7.343999999999999v-17.837h10.888c8.03 0 12.45-3.036 13.281-9.088v26.925h3.996v-17.837h10.888c8.956 0 13.436-3.765 13.436-11.294s-4.479-11.292-13.435-11.292zm-67.303 24.555l7.413-19.111 7.413 19.111h-14.826zm39.138-5.733h-10.888v-14.826h10.888c3.011 0 5.231.444 6.66 1.332 1.853 1.158 2.78 3.147 2.78 5.965 0 5.019-3.147 7.529-9.44 7.529zm28.165 0h-10.888v-14.826h10.888c3.011 0 5.231.444 6.66 1.332 1.853 1.158 2.78 3.147 2.78 5.965 0 5.019-3.148 7.529-9.44 7.529z"/></svg>