<svg xmlns="http://www.w3.org/2000/svg" viewBox="197 0 566 560" enable-background="new 197 0 566 560" fill="#fff"><path d="M480.7 560c-155.313 0-281.675-125.609-281.675-279.998s126.362-280.002 281.675-280.002 281.675 125.609 281.675 280.002-126.358 279.998-281.675 279.998zm0-513.147c-129.327 0-234.541 104.589-234.541 233.149s105.218 233.149 234.541 233.149 234.541-104.592 234.541-233.149-105.214-233.149-234.541-233.149zM520.131 175.5c-13.845 0-25.069 11.224-25.069 25.069v164.862c0 13.845 11.224 25.069 25.069 25.069 13.845 0 25.069-11.224 25.069-25.069v-164.862c0-13.845-11.224-25.069-25.069-25.069zm-78.862 0c-13.845 0-25.069 11.224-25.069 25.069v164.862c0 13.845 11.224 25.069 25.069 25.069 13.845 0 25.069-11.224 25.069-25.069v-164.862c0-13.845-11.224-25.069-25.069-25.069z"/></svg>