<svg xmlns="http://www.w3.org/2000/svg" viewBox="0 0 168.334 167.333" enable-background="new 0 0 168.334 167.333" fill="#fff"><path d="M70.586 53.004c.512-.296 1.084-.445 1.657-.445.571 0 1.143.148 1.657.445l39.49 28.712c1.024.592 1.658 1.687 1.658 2.871 0 1.183-.632 2.278-1.658 2.869l-39.49 28.714c-1.025.591-2.289.591-3.313 0-1.025-.593-1.658-1.689-1.658-2.871v-57.424c0-1.184.632-2.279 1.657-2.871zM84.167 167.333c-46.409 0-84.167-37.533-84.167-83.666s37.758-83.667 84.167-83.667 84.167 37.533 84.167 83.667-37.757 83.666-84.167 83.666zm0-153.333c-38.644 0-70.083 31.252-70.083 69.667s31.44 69.667 70.083 69.667 70.083-31.253 70.083-69.667-31.439-69.667-70.083-69.667z"/></svg>