<svg xmlns="http://www.w3.org/2000/svg" viewBox="0 0 752.812 538.752" fill="#fff" enable-background="new 0 0 752.812 538.752"><path d="M752.812 538.752h-750.695v-537.654h750.696v537.654zm-743.695-7h736.696v-523.654h-736.696v523.654zM5.617 4.598h78.568v39.925h-78.568zM15.972 58.335h51.656v8.704h-51.656zM15.972 73.256h41.06v8.704h-41.06zM15.972 304.977h51.656v8.704h-51.656zM15.972 319.897h41.06v8.704h-41.06zM202.376 58.335h51.656v8.704h-51.656zM202.376 73.256h41.06v8.704h-41.06zM93.457 15.019h41.06v8.704h-41.06zM333.192 15.019h41.06v8.704h-41.06zM582.198 15.019h41.06v8.704h-41.06zM584.495 58.335h51.656v8.704h-51.656zM584.495 73.256h41.06v8.704h-41.06zM584.495 303.369h41.06v8.704h-41.06zM202.376 179.567h41.06v8.704h-41.06zM202.376 429.898h41.06v8.704h-41.06zM333.502 179.567h41.06v8.704h-41.06zM454.032 179.567h41.06v8.704h-41.06zM93.457 41.023h625.166v7h-625.166zM317.771 16.371h7v18.543h-7zM317.771 173.987h7v236.761h-7zM438.963 173.987h7v236.761h-7zM15.972 287.142h166.57v7h-166.57zM574.264 287.142h166.569v7h-166.569zM200.079 415.195h358.278v7h-358.278zM200.079 161.553h358.278v7h-358.278zM562.103 16.371h7v18.543h-7zM188.632 55.371h7v466.225h-7zM562.103 55.371h7v466.225h-7z"/></svg>