<?xml version="1.0" encoding="utf-8"?>
<!-- Generator: Adobe Illustrator 17.1.0, SVG Export Plug-In . SVG Version: 6.00 Build 0)  -->
<!DOCTYPE svg PUBLIC "-//W3C//DTD SVG 1.1//EN" "http://www.w3.org/Graphics/SVG/1.1/DTD/svg11.dtd">
<svg version="1.1" id="Camada_1" xmlns="http://www.w3.org/2000/svg" xmlns:xlink="http://www.w3.org/1999/xlink" x="0px" y="0px"
	 viewBox="226 0 239 278" enable-background="new 226 0 239 278" xml:space="preserve" fill="#ffffff">
<g>
	<path d="M297.277,80.894c0,9.517-3.37,17.583-10.112,24.188c-6.741,6.612-14.869,9.914-24.386,9.914
		c-9.257,0-17.25-3.302-23.99-9.914c-6.741-6.605-10.112-14.672-10.112-24.188s3.371-17.578,10.112-24.188
		c6.741-6.605,14.734-9.914,23.99-9.914c9.517,0,17.645,3.309,24.386,9.914C293.908,63.315,297.277,71.377,297.277,80.894z
		 M297.277,195.889c0,9.517-3.37,17.583-10.112,24.188c-6.741,6.605-14.869,9.912-24.386,9.912c-9.257,0-17.25-3.307-23.99-9.912
		s-10.112-14.672-10.112-24.188s3.371-17.578,10.112-24.19c6.741-6.603,14.734-9.912,23.99-9.912c9.517,0,17.645,3.309,24.386,9.912
		C293.908,178.311,297.277,186.372,297.277,195.889z"/>
	<path d="M463.816,138.391c0,25.912-4.895,50.626-14.672,74.152c-10.574,25.378-25.91,46.791-45.996,64.238h-57.893
		c46.789-41.5,70.184-87.634,70.184-138.391c0-52.869-23.533-98.998-70.582-138.391h58.291
		C443.592,37.807,463.816,83.936,463.816,138.391z"/>
</g>
</svg>
