<?xml version="1.0" encoding="utf-8"?>
<!-- Generator: Adobe Illustrator 17.1.0, SVG Export Plug-In . SVG Version: 6.00 Build 0)  -->
<!DOCTYPE svg PUBLIC "-//W3C//DTD SVG 1.1//EN" "http://www.w3.org/Graphics/SVG/1.1/DTD/svg11.dtd">
<svg version="1.1" id="Camada_1" xmlns="http://www.w3.org/2000/svg" xmlns:xlink="http://www.w3.org/1999/xlink" x="0px" y="0px"
	 viewBox="0 0 67.25 19.625" enable-background="new 0 0 67.25 19.625" xml:space="preserve">
<g>
	<g>
		<path d="M7.521,5.442c0,0.938-0.038,1.65-0.112,2.137C7.249,8.667,6.79,9.422,6.03,9.844c-0.61,0.337-1.509,0.506-2.7,0.506H0.223
			V0.535H3.33c1.19,0,2.09,0.169,2.7,0.506C6.79,1.463,7.249,2.217,7.408,3.305C7.483,3.792,7.521,4.505,7.521,5.442z M6.03,5.442
			c0-1.041-0.028-1.711-0.085-2.011C5.862,2.906,5.632,2.534,5.257,2.313c-0.375-0.22-1.017-0.33-1.926-0.33H1.713v6.904H3.33
			c0.909,0,1.551-0.108,1.926-0.323c0.375-0.215,0.605-0.591,0.689-1.125C6.002,7.148,6.03,6.483,6.03,5.442z"/>
		<path d="M14.481,10.35H7.436V9.225l5.048-7.242h-4.57V0.535h6.567v1.167l-5.02,7.186h5.02V10.35z"/>
		<path d="M24.915,10.35H18.39V0.535h6.525v1.448h-5.048v2.644h4.415v1.35h-4.415v2.925h5.048V10.35z"/>
		<path d="M30.722,8.297c0,0.684-0.286,1.228-0.858,1.631c-0.506,0.366-1.111,0.548-1.814,0.548c-1.5,0-2.456-0.647-2.869-1.94
			l1.42-0.267c0.131,0.337,0.319,0.567,0.563,0.689c0.197,0.094,0.492,0.141,0.886,0.141c0.3,0,0.567-0.056,0.801-0.169
			c0.29-0.15,0.436-0.361,0.436-0.633c0-0.375-0.337-0.651-1.012-0.83c-1.134-0.3-1.763-0.478-1.884-0.534
			c-0.675-0.328-1.013-0.853-1.013-1.575c0-0.647,0.262-1.144,0.788-1.491c0.45-0.309,1.012-0.464,1.687-0.464
			c1.228,0,2.081,0.445,2.559,1.336l-1.294,0.633c-0.225-0.384-0.647-0.577-1.266-0.577c-0.694,0-1.041,0.188-1.041,0.563
			c0,0.234,0.338,0.431,1.013,0.59c0.928,0.216,1.556,0.417,1.884,0.605C30.385,6.928,30.722,7.509,30.722,8.297z"/>
		<path d="M33.816,4.697h-0.956v3.825c0,0.272,0.061,0.408,0.183,0.408h0.619v1.42h-0.619c-0.581,0-1.017-0.234-1.308-0.703
			c-0.169-0.281-0.253-0.656-0.253-1.125V4.697h-0.844V3.403h0.844V1.547h1.378v1.856h0.956V4.697z"/>
		<path d="M39.89,10.35h-1.435v-0.225c-0.459,0.225-0.909,0.337-1.349,0.337c-1.922,0-2.883-0.993-2.883-2.981V3.403h1.435v4.078
			c0,0.562,0.093,0.956,0.281,1.181c0.215,0.253,0.605,0.38,1.167,0.38c0.309,0,0.6-0.084,0.872-0.253
			c0.319-0.197,0.478-0.445,0.478-0.745v-4.64h1.435V10.35z M39.074,0.633l-1.631,2.053H36.29l1.181-2.053H39.074z"/>
		<path d="M46.316,10.139l-1.378,0.408l-0.141-0.464c-0.46,0.272-0.97,0.408-1.533,0.408c-1.116,0-1.927-0.436-2.433-1.308
			c-0.309-0.544-0.464-1.308-0.464-2.292s0.155-1.744,0.464-2.278c0.506-0.872,1.317-1.308,2.433-1.308
			c0.487,0,0.937,0.098,1.35,0.295V0.535h1.448v8.76L46.316,10.139z M44.615,5.934c-0.028-0.262-0.084-0.469-0.169-0.619
			c-0.225-0.394-0.618-0.591-1.181-0.591c-0.563,0-0.956,0.197-1.181,0.591c-0.178,0.319-0.267,0.844-0.267,1.575
			s0.089,1.256,0.267,1.575c0.225,0.394,0.619,0.59,1.181,0.59c0.563,0,0.956-0.197,1.181-0.59c0.085-0.15,0.141-0.356,0.169-0.619
			V5.934z"/>
		<path d="M48.58,1.041c0,0.234-0.084,0.436-0.253,0.605c-0.169,0.169-0.37,0.253-0.604,0.253c-0.235,0-0.436-0.084-0.605-0.253
			c-0.169-0.169-0.253-0.37-0.253-0.605c0-0.234,0.085-0.436,0.253-0.604c0.169-0.169,0.37-0.253,0.605-0.253
			c0.234,0,0.436,0.084,0.604,0.253C48.496,0.605,48.58,0.807,48.58,1.041z M48.44,10.35h-1.448V3.403h1.448V10.35z"/>
		<path d="M55.133,6.933c0,1.012-0.164,1.781-0.492,2.306c-0.525,0.825-1.364,1.237-2.517,1.237c-1.163,0-2.006-0.412-2.531-1.237
			C49.264,8.704,49.1,7.94,49.1,6.947c0-1.003,0.164-1.767,0.492-2.292c0.525-0.834,1.368-1.252,2.531-1.252
			c1.153,0,1.992,0.417,2.517,1.252C54.968,5.171,55.133,5.93,55.133,6.933z M53.684,6.947c0-0.75-0.094-1.275-0.281-1.575
			c-0.244-0.384-0.675-0.577-1.294-0.577c-0.609,0-1.036,0.192-1.28,0.577c-0.187,0.3-0.281,0.825-0.281,1.575
			c0,0.741,0.094,1.261,0.281,1.561c0.244,0.394,0.67,0.59,1.28,0.59c0.619,0,1.05-0.197,1.294-0.59
			C53.59,8.208,53.684,7.688,53.684,6.947z"/>
		<path d="M67.169,8.297c0,0.684-0.286,1.228-0.858,1.631c-0.506,0.366-1.111,0.548-1.814,0.548c-1.5,0-2.456-0.647-2.869-1.94
			l1.42-0.267c0.131,0.337,0.319,0.567,0.563,0.689c0.197,0.094,0.492,0.141,0.886,0.141c0.3,0,0.567-0.056,0.801-0.169
			c0.29-0.15,0.436-0.361,0.436-0.633c0-0.375-0.338-0.651-1.013-0.83c-1.134-0.3-1.763-0.478-1.884-0.534
			c-0.675-0.328-1.013-0.853-1.013-1.575c0-0.647,0.262-1.144,0.787-1.491c0.45-0.309,1.013-0.464,1.688-0.464
			c1.228,0,2.081,0.445,2.559,1.336l-1.293,0.633c-0.225-0.384-0.647-0.577-1.266-0.577c-0.694,0-1.041,0.188-1.041,0.563
			c0,0.234,0.338,0.431,1.013,0.59c0.928,0.216,1.556,0.417,1.884,0.605C66.831,6.928,67.169,7.509,67.169,8.297z"/>
	</g>
	<rect x="20.222" y="18.274" width="26.642" height="1.366"/>
	<rect x="59.609" y="0.535" width="1.334" height="2.768"/>
</g>
</svg>
