<?xml version="1.0" encoding="utf-8"?>
<!-- Generator: Adobe Illustrator 17.1.0, SVG Export Plug-In . SVG Version: 6.00 Build 0)  -->
<!DOCTYPE svg PUBLIC "-//W3C//DTD SVG 1.1//EN" "http://www.w3.org/Graphics/SVG/1.1/DTD/svg11.dtd">
<svg version="1.1" id="Camada_1" xmlns="http://www.w3.org/2000/svg" xmlns:xlink="http://www.w3.org/1999/xlink" x="0px" y="0px"
	 viewBox="197 0 566 560" enable-background="new 197 0 566 560" xml:space="preserve" fill="#ffffff">
<g>
	<path d="M480.7,560c-155.313,0-281.675-125.609-281.675-279.998S325.387,0,480.7,0s281.675,125.609,281.675,280.002
		S636.017,560,480.7,560z M480.7,46.853c-129.327,0-234.541,104.589-234.541,233.149S351.377,513.151,480.7,513.151
		s234.541-104.592,234.541-233.149S610.027,46.853,480.7,46.853z"/>
</g>
<g>
	<g>
		<path d="M527.543,283.507l53.236-53.237c12.555-12.555,12.555-32.91,0-45.465c-12.555-12.555-32.911-12.555-45.467,0
			l-53.236,53.236l-53.359-53.359c-12.555-12.555-32.911-12.555-45.467,0s-12.555,32.91,0,45.465l53.36,53.36l-51.009,51.009
			c-12.555,12.555-12.555,32.911,0,45.467s32.911,12.555,45.467,0l51.008-51.009l50.885,50.885c12.555,12.555,32.91,12.555,45.465,0
			c12.555-12.555,12.555-32.911,0-45.467L527.543,283.507z"/>
	</g>
</g>
</svg>
