<?xml version="1.0" encoding="utf-8"?>
<!-- Generator: Adobe Illustrator 17.1.0, SVG Export Plug-In . SVG Version: 6.00 Build 0)  -->
<!DOCTYPE svg PUBLIC "-//W3C//DTD SVG 1.1//EN" "http://www.w3.org/Graphics/SVG/1.1/DTD/svg11.dtd">
<svg version="1.1" id="Camada_1" xmlns="http://www.w3.org/2000/svg" xmlns:xlink="http://www.w3.org/1999/xlink" x="0px" y="0px"
	 viewBox="0 0 63.334 73.91" enable-background="new 0 0 63.334 73.91" xml:space="preserve">
<g>
	<g>
		<path d="M10.358,15.299h29.087v-4.276H10.358V15.299z M10.358,22.619h29.087v-4.276H10.358V22.619z M49.565,33.571V0H0v33.571
			h5.89v9.834l6.583-4.377l8.21-5.458H49.565z M10.135,35.46v-6.165h-5.89v-1.197c0-0.08,0-0.11,0-0.11V5.697c0-0.784,0,0,0-1.42
			H45.32c0,1.42,0,0.636,0,1.42v22.178c0,0.784,0-0.372,0,1.42H19.408L10.135,35.46z M53.815,29.346v4.276h5.27
			c0,1.42,0,0.636,0,1.42V59.26H53.54v6.572l-9.703-6.572H19.476c0-1.57,0-0.636,0-1.42V38.82l-4.245,2.36v22.357h27.312
			l8.628,5.845l6.614,4.48V63.537h5.545V29.346H53.815z M53.696,41.18H24.609v4.276h29.087V41.18z M24.609,52.776h29.087V48.5
			H24.609V52.776z"/>
	</g>
</g>
</svg>
