<?xml version="1.0" encoding="utf-8"?>
<!-- Generator: Adobe Illustrator 17.1.0, SVG Export Plug-In . SVG Version: 6.00 Build 0)  -->
<!DOCTYPE svg PUBLIC "-//W3C//DTD SVG 1.1//EN" "http://www.w3.org/Graphics/SVG/1.1/DTD/svg11.dtd">
<svg version="1.1" id="Camada_1" xmlns="http://www.w3.org/2000/svg" xmlns:xlink="http://www.w3.org/1999/xlink" x="0px" y="0px"
	 viewBox="0 0 78.037 73.91" enable-background="new 0 0 78.037 73.91" xml:space="preserve" fill="#56a623">
<path d="M0,0v73.91h78.037V0H0z M23.308,53.811V25.803h7.696v28.008H23.308z M35.993,25.803h6.916v28.008h-6.916V25.803z
	 M47.897,25.803h7.107v28.008h-7.107V25.803z M55.004,20.851H23.308V10.14h31.696V20.851z M18.32,10.14v27.031H4.988V10.14H18.32z
	 M23.308,58.764h31.696v10.194H23.308V58.764z M59.992,10.14h13.057v27.031H59.992V10.14z M4.988,42.124H18.32v26.834H4.988V42.124z
	 M59.992,68.958V42.124h13.057v26.834H59.992z"/>
</svg>
