<?xml version="1.0" encoding="utf-8"?>
<!-- Generator: Adobe Illustrator 17.1.0, SVG Export Plug-In . SVG Version: 6.00 Build 0)  -->
<!DOCTYPE svg PUBLIC "-//W3C//DTD SVG 1.1//EN" "http://www.w3.org/Graphics/SVG/1.1/DTD/svg11.dtd">
<svg version="1.1" id="Camada_1" xmlns="http://www.w3.org/2000/svg" xmlns:xlink="http://www.w3.org/1999/xlink" x="0px" y="0px"
	 viewBox="0 0 100.333 87.333" enable-background="new 0 0 100.333 87.333" xml:space="preserve">
<g>
	<g>
		<path d="M70.489,0.391h-8.535v35.713L47.647,0.391h-7.734l-10.74,27.005V0.391h-8.985V27.48c0,3.535-1.783,5.254-5.451,5.254
			c-2.877,0-4.813-1.811-5.756-5.383l-0.074-0.281l-8.666,2.258l0.069,0.278c1.88,7.73,6.754,11.649,14.486,11.649
			c3.464,0,6.378-0.682,8.661-2.026l1.319-0.776l-0.955,2.403h9.743l3.729-10h13.035l3.729,10h17.003V23.264l7.388,17.593h5.655
			l7.448-17.603v17.603h9.103V0.391H92.24L81.248,26.554L70.489,0.391z M40.232,23.134l3.55-9.567l3.604,9.567H40.232z"/>
	</g>
	<path fill="#1D1D1B" d="M84.593,46.823H69.708v9.087c-0.831-6.052-5.25-9.087-13.281-9.087H41.543v37.848l-14.64-37.848h-4.402
		L6.865,87.246h4.285l4.692-11.988h17.721l4.632,11.988h3.348h0.996h3V69.409h10.888c8.03,0,12.45-3.036,13.281-9.088v26.925h3.996
		V69.409h10.888c8.956,0,13.436-3.765,13.436-11.294S93.549,46.823,84.593,46.823z M17.289,71.377l7.413-19.111l7.413,19.111H17.289
		z M56.428,65.644H45.54V50.818h10.888c3.011,0,5.231,0.444,6.66,1.332c1.853,1.158,2.78,3.147,2.78,5.965
		C65.868,63.135,62.72,65.644,56.428,65.644z M84.593,65.644H73.705V50.818h10.888c3.011,0,5.231,0.444,6.66,1.332
		c1.853,1.158,2.78,3.147,2.78,5.965C94.032,63.135,90.885,65.644,84.593,65.644z"/>
</g>
</svg>
