<?xml version="1.0" encoding="utf-8"?>
<!-- Generator: Adobe Illustrator 17.1.0, SVG Export Plug-In . SVG Version: 6.00 Build 0)  -->
<!DOCTYPE svg PUBLIC "-//W3C//DTD SVG 1.1//EN" "http://www.w3.org/Graphics/SVG/1.1/DTD/svg11.dtd">
<svg version="1.1" id="Modo_de_isolamento" xmlns="http://www.w3.org/2000/svg" xmlns:xlink="http://www.w3.org/1999/xlink" x="0px"
	 y="0px" viewBox="0 0 189.75 41" enable-background="new 0 0 189.75 41" xml:space="preserve" fill="#62bc28">
<g>
	<g>
		<path d="M70.498,0.308h-8.535v35.713L47.656,0.308h-7.734l-10.74,27.005V0.308h-8.985v27.089c0,3.535-1.783,5.254-5.451,5.254
			c-2.877,0-4.813-1.811-5.756-5.383l-0.074-0.281l-8.666,2.258l0.069,0.278c1.88,7.73,6.754,11.649,14.486,11.649
			c3.464,0,6.378-0.682,8.661-2.026l1.319-0.776l-0.955,2.403h9.743l3.729-10h13.035l3.729,10h17.003V23.181l7.388,17.593h5.655
			l7.448-17.603v17.603h9.103V0.308h-8.413L81.256,26.47L70.498,0.308z M40.24,23.051l3.55-9.567l3.604,9.567H40.24z"/>
	</g>
</g>
<path d="M176.092,0.35h-14.884v9.087c-0.831-6.052-5.25-9.087-13.281-9.087h-14.884v37.848L118.402,0.35h-4.402L98.364,40.773h4.285
	l4.692-11.988h17.721l4.632,11.988h3.348h0.996h3V22.936h10.888c8.03,0,12.45-3.036,13.281-9.088v26.925h3.996V22.936h10.888
	c8.956,0,13.436-3.765,13.436-11.294S185.048,0.35,176.092,0.35z M108.789,24.905l7.413-19.111l7.413,19.111H108.789z
	 M147.927,19.172h-10.888V4.346h10.888c3.011,0,5.231,0.444,6.66,1.332c1.853,1.158,2.78,3.147,2.78,5.965
	C157.367,16.662,154.22,19.172,147.927,19.172z M176.092,19.172h-10.888V4.346h10.888c3.011,0,5.231,0.444,6.66,1.332
	c1.853,1.158,2.78,3.147,2.78,5.965C185.532,16.662,182.384,19.172,176.092,19.172z"/>
</svg>
