<?xml version="1.0" encoding="utf-8"?>
<!-- Generator: Adobe Illustrator 17.1.0, SVG Export Plug-In . SVG Version: 6.00 Build 0)  -->
<!DOCTYPE svg PUBLIC "-//W3C//DTD SVG 1.1//EN" "http://www.w3.org/Graphics/SVG/1.1/DTD/svg11.dtd">
<svg version="1.1" id="Camada_1" xmlns="http://www.w3.org/2000/svg" xmlns:xlink="http://www.w3.org/1999/xlink" x="0px" y="0px"
	 viewBox="197 0 566 560" enable-background="new 197 0 566 560" xml:space="preserve" fill="#ffffff">
<g>
	<path d="M480.7,560c-155.313,0-281.675-125.609-281.675-279.998S325.387,0,480.7,0s281.675,125.609,281.675,280.002
		S636.017,560,480.7,560z M480.7,46.853c-129.327,0-234.541,104.589-234.541,233.149S351.377,513.151,480.7,513.151
		s234.541-104.592,234.541-233.149S610.027,46.853,480.7,46.853z"/>
</g>
<g>
	<g>
		<g>
			<path d="M520.131,175.5c-13.845,0-25.069,11.224-25.069,25.069v164.862c0,13.845,11.224,25.069,25.069,25.069
				c13.845,0,25.069-11.224,25.069-25.069V200.569C545.2,186.724,533.976,175.5,520.131,175.5z M441.269,175.5
				c-13.845,0-25.069,11.224-25.069,25.069v164.862c0,13.845,11.224,25.069,25.069,25.069c13.845,0,25.069-11.224,25.069-25.069
				V200.569C466.338,186.724,455.114,175.5,441.269,175.5z"/>
		</g>
	</g>
</g>
</svg>
