<?xml version="1.0" encoding="utf-8"?>
<!-- Generator: Adobe Illustrator 17.1.0, SVG Export Plug-In . SVG Version: 6.00 Build 0)  -->
<!DOCTYPE svg PUBLIC "-//W3C//DTD SVG 1.1//EN" "http://www.w3.org/Graphics/SVG/1.1/DTD/svg11.dtd">
<svg version="1.1" id="Camada_1" xmlns="http://www.w3.org/2000/svg" xmlns:xlink="http://www.w3.org/1999/xlink" x="0px" y="0px"
	 viewBox="0 0 168.334 167.333" enable-background="new 0 0 168.334 167.333" xml:space="preserve" fill="#ffffff">
<path d="M70.586,53.004c0.512-0.296,1.084-0.445,1.657-0.445c0.571,0,1.143,0.148,1.657,0.445l39.49,28.712
	c1.024,0.592,1.658,1.687,1.658,2.871c0,1.183-0.632,2.278-1.658,2.869l-39.49,28.714c-1.025,0.591-2.289,0.591-3.313,0
	c-1.025-0.593-1.658-1.689-1.658-2.871V55.875C68.929,54.691,69.561,53.596,70.586,53.004z"/>
<g>
	<path d="M84.167,167.333C37.758,167.333,0,129.8,0,83.667S37.758,0,84.167,0s84.167,37.533,84.167,83.667
		S130.577,167.333,84.167,167.333z M84.167,14c-38.644,0-70.083,31.252-70.083,69.667s31.44,69.667,70.083,69.667
		s70.083-31.253,70.083-69.667S122.811,14,84.167,14z"/>
</g>
</svg>
