<?xml version="1.0" encoding="utf-8"?>
<!-- Generator: Adobe Illustrator 17.1.0, SVG Export Plug-In . SVG Version: 6.00 Build 0)  -->
<!DOCTYPE svg PUBLIC "-//W3C//DTD SVG 1.1//EN" "http://www.w3.org/Graphics/SVG/1.1/DTD/svg11.dtd">
<svg version="1.1" id="Camada_1" xmlns="http://www.w3.org/2000/svg" xmlns:xlink="http://www.w3.org/1999/xlink" x="0px" y="0px"
	 viewBox="0 0 752.812 538.752" fill="#fff" enable-background="new 0 0 752.812 538.752" xml:space="preserve">
<g>
	<g>
		<path d="M752.812,538.752H2.117V1.098h750.696V538.752z M9.117,531.752h736.696V8.098H9.117V531.752z"/>
	</g>
	<g>
		<rect x="5.617" y="4.598" width="78.568" height="39.925"/>
	</g>
	<g>
		<rect x="15.972" y="58.335" width="51.656" height="8.704"/>
	</g>
	<g>
		<rect x="15.972" y="73.256" width="41.06" height="8.704"/>
	</g>
	<g>
		<rect x="15.972" y="304.977" width="51.656" height="8.704"/>
	</g>
	<g>
		<rect x="15.972" y="319.897" width="41.06" height="8.704"/>
	</g>
	<g>
		<rect x="202.376" y="58.335" width="51.656" height="8.704"/>
	</g>
	<g>
		<rect x="202.376" y="73.256" width="41.06" height="8.704"/>
	</g>
	<g>
		<rect x="93.457" y="15.019" width="41.06" height="8.704"/>
	</g>
	<g>
		<rect x="333.192" y="15.019" width="41.06" height="8.704"/>
	</g>
	<g>
		<rect x="582.198" y="15.019" width="41.06" height="8.704"/>
	</g>
	<g>
		<rect x="584.495" y="58.335" width="51.656" height="8.704"/>
	</g>
	<g>
		<rect x="584.495" y="73.256" width="41.06" height="8.704"/>
	</g>
	<g>
		<rect x="584.495" y="303.369" width="41.06" height="8.704"/>
	</g>
	<g>
		<rect x="202.376" y="179.567" width="41.06" height="8.704"/>
	</g>
	<g>
		<rect x="202.376" y="429.898" width="41.06" height="8.704"/>
	</g>
	<g>
		<rect x="333.502" y="179.567" width="41.06" height="8.704"/>
	</g>
	<g>
		<rect x="454.032" y="179.567" width="41.06" height="8.704"/>
	</g>
	<g>
		<rect x="93.457" y="41.023" width="625.166" height="7"/>
	</g>
	<g>
		<rect x="317.771" y="16.371" width="7" height="18.543"/>
	</g>
	<g>
		<rect x="317.771" y="173.987" width="7" height="236.761"/>
	</g>
	<g>
		<rect x="438.963" y="173.987" width="7" height="236.761"/>
	</g>
	<g>
		<rect x="15.972" y="287.142" width="166.57" height="7"/>
	</g>
	<g>
		<rect x="574.264" y="287.142" width="166.569" height="7"/>
	</g>
	<g>
		<rect x="200.079" y="415.195" width="358.278" height="7"/>
	</g>
	<g>
		<rect x="200.079" y="161.553" width="358.278" height="7"/>
	</g>
	<g>
		<rect x="562.103" y="16.371" width="7" height="18.543"/>
	</g>
	<g>
		<rect x="188.632" y="55.371" width="7" height="466.225"/>
	</g>
	<g>
		<rect x="562.103" y="55.371" width="7" height="466.225"/>
	</g>
</g>
</svg>
